<?xml version="1.0" encoding="utf-8"?>
<!-- Generator: Adobe Illustrator 25.2.1, SVG Export Plug-In . SVG Version: 6.00 Build 0)  -->
<svg version="1.1" id="Layer_1" xmlns="http://www.w3.org/2000/svg" xmlns:xlink="http://www.w3.org/1999/xlink" x="0px" y="0px"
	 viewBox="0 0 264.5 64.9" style="enable-background:new 0 0 264.5 64.9;" xml:space="preserve">
<g>
	<path d="M11.7,36V20.4h0.8V36H11.7z M13.2,36V20.4H14V36H13.2z M14.8,36V20.4h2.4V36H14.8z M16.1,38.3h1.4c0.5,0,0.9,0.1,1.2,0.2
		c0.3,0.1,0.6,0.4,0.8,0.6c0.4,0.5,0.6,1.3,0.6,2.2c0,1-0.3,1.8-0.7,2.3c-0.4,0.5-1.1,0.8-2,0.8h-1.3V38.3z M17.3,43.9
		c1.4,0,2-0.8,2-2.5c0-0.8-0.1-1.5-0.4-1.9c-0.3-0.4-0.8-0.7-1.5-0.7h-0.7v5H17.3z M19.6,36V20.4h0.8V36H19.6z M21.2,36V20.4h2.4V36
		H21.2z"/>
	<path d="M25.1,36V20.4h2.4V36H25.1z M28.3,36V20.4h0.8V36H28.3z M29.6,38.3h3.8v0.6h-3.1v2h2.6v0.6h-2.6v2.3h3.1v0.6h-3.7V38.3z
		 M29.9,36V20.4h2.4V36H29.9z M34.7,36V20.4h0.8V36H34.7z M36.3,36V20.4H37V36H36.3z"/>
	<path d="M38.6,36V20.4h0.8V36H38.6z M41.8,36V20.4h2.4V36H41.8z M42.8,38.3h0.7l1.6,4.7l1.5-4.7h0.7l-2.1,6.2h-0.3L42.8,38.3z
		 M45,36V20.4h0.8V36H45z M46.6,36V20.4h0.8V36H46.6z M48.2,36V20.4h2.4V36H48.2z"/>
	<path d="M52.1,36V20.4h2.4V36H52.1z M55.3,36V20.4h0.8V36H55.3z M56.6,38.3h3.8v0.6h-3.1v2h2.6v0.6h-2.6v2.3h3.1v0.6h-3.7V38.3z
		 M56.9,36V20.4h2.4V36H56.9z M61.6,36V20.4h0.8V36H61.6z M63.2,36V20.4H64V36H63.2z"/>
	<path d="M65.6,36V20.4h0.8V36H65.6z M67.2,36V20.4h2.4V36H67.2z M70.2,38.3H71v0.1c0,0-0.1,0.1-0.1,0.1c0,0,0,0.1,0,0.2v5.1h2.9
		v0.6h-3.6V38.3z M70.4,36V20.4h0.8V36H70.4z M72,36V20.4h0.8V36H72z M75.1,36V20.4h2.4V36H75.1z"/>
	<path d="M79.1,36V20.4h2.4V36H79.1z M82.3,36V20.4h0.8V36H82.3z M85.4,44.5c-0.7,0-1.2-0.3-1.6-0.8c-0.4-0.5-0.6-1.3-0.6-2.3
		c0-1,0.2-1.7,0.6-2.3c0.4-0.5,0.9-0.8,1.6-0.8s1.2,0.3,1.6,0.8c0.4,0.6,0.6,1.3,0.6,2.3c0,1-0.2,1.8-0.6,2.3
		C86.7,44.2,86.1,44.5,85.4,44.5z M83.9,36V20.4h2.4V36H83.9z M85.4,43.9c0.5,0,0.8-0.2,1.1-0.6c0.3-0.4,0.4-1.1,0.4-1.9
		c0-0.8-0.1-1.4-0.4-1.9c-0.3-0.4-0.6-0.7-1.1-0.7c-0.5,0-0.8,0.2-1.1,0.7C84.1,40,84,40.6,84,41.4c0,0.8,0.1,1.5,0.4,1.9
		C84.6,43.7,85,43.9,85.4,43.9z M87,36V20.4h0.8V36H87z M90.2,36V20.4H91V36H90.2z"/>
	<path d="M92.6,36V20.4h0.8V36H92.6z M94.2,36V20.4h2.4V36H94.2z M97.1,38.3h2c0.7,0,1.1,0.2,1.5,0.5c0.3,0.3,0.5,0.7,0.5,1.2
		c0,0.5-0.2,0.9-0.5,1.2c-0.3,0.3-0.8,0.5-1.4,0.5h-1.3v2.7h-0.7V38.3z M97.3,36V20.4h2.4V36H97.3z M99,41.1c0.4,0,0.8-0.1,1-0.3
		c0.2-0.2,0.3-0.4,0.3-0.8c0-0.3-0.1-0.6-0.3-0.8c-0.2-0.2-0.5-0.3-0.9-0.3h-1.2v2.2H99z M100.5,36V20.4h0.8V36H100.5z M103.7,36
		V20.4h0.8V36H103.7z"/>
	<path d="M106.1,36V20.4h2.4V36H106.1z M109.2,36V20.4h0.8V36H109.2z M110.5,38.3h3.8v0.6h-3.1v2h2.6v0.6h-2.6v2.3h3.1v0.6h-3.7
		V38.3z M110.8,36V20.4h2.4V36H110.8z M115.6,36V20.4h0.8V36H115.6z M117.2,36V20.4h0.8V36H117.2z"/>
	<path d="M119.6,36V20.4h2.4V36H119.6z M122.7,36V20.4h0.8V36H122.7z M124,38.3h1.8c0.7,0,1.2,0.2,1.5,0.5c0.3,0.3,0.5,0.7,0.5,1.3
		c0,0.4-0.1,0.7-0.3,1c-0.2,0.3-0.5,0.5-0.9,0.6l1.4,2.7h-0.8l-1.4-2.7h-1.2v2.7H124V38.3z M124.3,36V20.4h0.8V36H124.3z
		 M125.9,41.1c0.4,0,0.7-0.1,1-0.3c0.2-0.2,0.3-0.4,0.3-0.8c0-0.3-0.1-0.6-0.3-0.8c-0.2-0.2-0.5-0.3-1-0.3h-1.2v2.2H125.9z
		 M125.9,36V20.4h2.4V36H125.9z M130.7,36V20.4h0.8V36H130.7z"/>
	<path d="M133,36V20.4h0.8V36H133z M136.2,36V20.4h2.4V36H136.2z M139.4,36V20.4h0.8V36H139.4z M141,36V20.4h2.4V36H141z M144.2,36
		V20.4h0.8V36H144.2z"/>
	<path d="M146.5,36V20.4h0.8V36H146.5z M148.1,36V20.4h0.8V36H148.1z M149.7,36V20.4h2.4V36H149.7z M150.9,38.3h1.4
		c0.5,0,0.9,0.1,1.2,0.2c0.3,0.1,0.6,0.4,0.8,0.6c0.4,0.5,0.6,1.3,0.6,2.2c0,1-0.3,1.8-0.7,2.3c-0.4,0.5-1.1,0.8-2,0.8h-1.3V38.3z
		 M152.2,43.9c1.4,0,2-0.8,2-2.5c0-0.8-0.1-1.5-0.4-1.9c-0.3-0.4-0.8-0.7-1.5-0.7h-0.7v5H152.2z M154.5,36V20.4h0.8V36H154.5z
		 M156.1,36V20.4h2.4V36H156.1z"/>
	<path d="M160,36V20.4h2.4V36H160z M163.2,36V20.4h0.8V36H163.2z M164.5,38.3h3.8v0.6h-3.1v2h2.6v0.6h-2.6v2.3h3.1v0.6h-3.7V38.3z
		 M164.8,36V20.4h2.4V36H164.8z M169.5,36V20.4h0.8V36H169.5z M171.1,36V20.4h0.8V36H171.1z"/>
	<path d="M173.5,36V20.4h0.8V36H173.5z M175.1,36V20.4h2.4V36H175.1z M179.8,44.5c-0.8,0-1.4-0.3-1.9-0.8l0.4-0.6l0-0.1l0.1,0
		c0,0,0,0.1,0,0.1c0,0,0,0.1,0.1,0.1c0,0,0.1,0.1,0.1,0.1c0.4,0.3,0.8,0.5,1.4,0.5c0.4,0,0.7-0.1,0.9-0.3c0.2-0.2,0.4-0.5,0.4-0.7
		c0-0.2,0-0.4-0.1-0.5c-0.1-0.1-0.2-0.2-0.4-0.4c-0.2-0.1-0.5-0.3-0.9-0.4c-0.6-0.2-1-0.5-1.3-0.8c-0.2-0.3-0.4-0.6-0.4-1
		c0-0.5,0.2-0.8,0.5-1.1c0.3-0.3,0.8-0.4,1.3-0.4c0.3,0,0.7,0.1,1,0.2c0.3,0.1,0.5,0.3,0.8,0.6l-0.4,0.6l-0.1-0.1c0,0,0,0,0-0.1
		c0-0.1,0-0.1-0.1-0.1c0-0.1-0.1-0.1-0.1-0.1c-0.1-0.1-0.3-0.2-0.5-0.3c-0.2-0.1-0.4-0.1-0.6-0.1c-0.3,0-0.6,0.1-0.7,0.3
		c-0.2,0.2-0.3,0.4-0.3,0.6c0,0.2,0,0.4,0.1,0.5c0.1,0.1,0.2,0.3,0.4,0.4c0.2,0.1,0.5,0.3,1,0.4c0.6,0.2,1,0.5,1.2,0.7
		c0.2,0.3,0.3,0.6,0.3,1c0,0.3-0.1,0.6-0.2,0.8c-0.2,0.3-0.4,0.5-0.7,0.7C180.6,44.4,180.3,44.5,179.8,44.5z M178.3,36V20.4h0.8V36
		H178.3z M179.9,36V20.4h2.4V36H179.9z M184.6,36V20.4h0.8V36H184.6z"/>
	<path d="M187,36V20.4h0.8V36H187z M188.6,36V20.4h2.4V36H188.6z M191.7,43.8h1.2v-5h-1.1v-0.6h3v0.6h-1.2v5h1.3v0.6h-3.2V43.8z
		 M191.8,36V20.4h0.8V36H191.8z M194.9,36V20.4h2.4V36H194.9z M198.1,36V20.4h0.8V36H198.1z"/>
	<path d="M200.5,36V20.4h0.8V36H200.5z M202.1,36V20.4h0.8V36H202.1z M203.7,36V20.4h0.8V36H203.7z M207.1,44.5
		c-0.5,0-0.9-0.1-1.3-0.4c-0.4-0.2-0.6-0.6-0.8-1.1c-0.2-0.5-0.3-1-0.3-1.6c0-0.8,0.1-1.5,0.4-1.9c0.2-0.5,0.5-0.8,0.9-1
		c0.4-0.2,0.7-0.3,1.1-0.3c0.4,0,0.7,0.1,1.1,0.3c0.4,0.2,0.6,0.4,0.8,0.7l-0.5,0.4l-0.1,0.1l0-0.1c0-0.1,0-0.1,0-0.2
		c0,0-0.1-0.1-0.2-0.2c-0.2-0.2-0.3-0.3-0.5-0.4c-0.2-0.1-0.4-0.1-0.6-0.1c-0.5,0-0.9,0.2-1.2,0.6c-0.3,0.4-0.4,1-0.4,1.9
		c0,0.8,0.1,1.5,0.4,2c0.3,0.5,0.7,0.7,1.2,0.7c0.2,0,0.4,0,0.6-0.1c0.2-0.1,0.4-0.1,0.6-0.3v-1.5h-1.1v-0.6h1.7v2.4
		C208.3,44.3,207.7,44.5,207.1,44.5z M206.8,36V20.4h2.4V36H206.8z M210,36V20.4h2.4V36H210z"/>
	<path d="M214,36V20.4h0.8V36H214z M215.6,36V20.4h0.8V36H215.6z M217.1,36V20.4h2.4V36H217.1z M218.4,38.3h0.7l2.6,4.5v-4.5h0.8
		v0.1c-0.1,0-0.1,0.1-0.1,0.1c0,0,0,0.1,0,0.2v5.7h-0.5l-2.7-4.8v4.8h-0.6V38.3z M220.3,36V20.4h0.8V36H220.3z M223.5,36V20.4h2.4
		V36H223.5z"/>
	<path d="M227.5,36V20.4h2.4V36H227.5z M230.6,36V20.4h0.8V36H230.6z M231.9,38.3h3.8v0.6h-3.1v2h2.6v0.6h-2.6v2.3h3.1v0.6h-3.7
		V38.3z M232.2,36V20.4h2.4V36H232.2z M237,36V20.4h0.8V36H237z M238.6,36V20.4h0.8V36H238.6z"/>
	<path d="M240.9,36V20.4h2.4V36H240.9z M244.1,36V20.4h0.8V36H244.1z M245.4,38.3h1.8c0.7,0,1.2,0.2,1.5,0.5
		c0.3,0.3,0.5,0.7,0.5,1.3c0,0.4-0.1,0.7-0.3,1c-0.2,0.3-0.5,0.5-0.9,0.6l1.4,2.7h-0.8l-1.4-2.7h-1.2v2.7h-0.7V38.3z M245.7,36V20.4
		h0.8V36H245.7z M247.3,41.1c0.4,0,0.7-0.1,1-0.3c0.2-0.2,0.3-0.4,0.3-0.8c0-0.3-0.1-0.6-0.3-0.8c-0.2-0.2-0.5-0.3-1-0.3h-1.2v2.2
		H247.3z M247.3,36V20.4h2.4V36H247.3z M252,36V20.4h0.8V36H252z"/>
</g>
</svg>
