<?xml version="1.0" encoding="utf-8"?>
<!-- Generator: Adobe Illustrator 25.2.1, SVG Export Plug-In . SVG Version: 6.00 Build 0)  -->
<svg version="1.1" id="Layer_1" xmlns="http://www.w3.org/2000/svg" xmlns:xlink="http://www.w3.org/1999/xlink" x="0px" y="0px"
	 viewBox="0 0 512 512" style="enable-background:new 0 0 512 512;" xml:space="preserve">
<style type="text/css">
	.st0{display:none;}
	.st1{display:inline;}
	.st2{fill:#CCFF00;}
	.st3{fill:none;}
	.st4{fill-rule:evenodd;clip-rule:evenodd;fill:#CCFF00;}
</style>
<g class="st0">
	<g class="st1">
		<path class="st2" d="M487.9,3.5C485.9,1.3,483,0,480,0H32c-3,0-5.9,1.3-7.9,3.5s-3,5.2-2.7,8.2L64,438.4c0.4,4.2,3.2,7.7,7.2,9
			l192,64c1.1,0.4,2.2,0.6,3.4,0.6c1.3,0,2.5-0.2,3.8-0.7l170.7-64c3.8-1.4,6.5-4.9,6.9-8.9l42.7-426.7
			C490.9,8.7,489.9,5.7,487.9,3.5z M427.3,429.7L266.4,490L84.6,429.4L43.8,21.3h424.4L427.3,429.7z"/>
	</g>
</g>
<g class="st0">
	<g class="st1">
		<path class="st2" d="M402.8,110.5c-2-2.4-5-3.8-8.2-3.8h-256c-5.9,0-10.7,4.8-10.7,10.7s4.8,10.7,10.7,10.7H382l-14.8,85.3H149.3
			c-5.9,0-10.7,4.8-10.7,10.7s4.8,10.7,10.7,10.7h214.1L342.5,355l-76.1,28.5l-86.5-28.9l-9.5-47.3c-1.1-5.8-6.7-9.5-12.5-8.4
			c-5.8,1.2-9.5,6.8-8.4,12.5l10.7,53.3c0.7,3.8,3.5,6.8,7.1,8l96,32c1.1,0.4,2.2,0.6,3.4,0.6c1.3,0,2.5-0.2,3.8-0.7l85.3-32
			c3.5-1.3,6.1-4.4,6.8-8.2l42.7-245.3C405.7,116.1,404.8,112.9,402.8,110.5z"/>
	</g>
</g>
<path class="st3" d="M13.4,438.9h485v-369h-485C13.4,69.9,13.4,438.9,13.4,438.9z M305.7,261l-9.5-1.4c-22-3.2-38.5-12.3-38.5-34.6
	c0-23.7,18.3-35.3,42.7-35.3c19.3,0,32,7.2,41.8,19.3l-12.3,11.1c-5.3-7.4-15.5-14.6-30.9-14.6c-15.3,0-23.4,7.2-23.4,18.6
	c0,11.6,8.1,16.2,23,18.6l9.3,1.4c26.5,3.9,36.7,15.5,36.7,33.6c0,23.2-16.9,37.3-44.3,37.3c-22.1,0-36.7-9.3-47.4-23.4L266,281
	c9.3,11.6,20.4,18.3,35.5,18.3c15.8,0,25.1-7.2,25.1-19.5C326.6,270.5,321.5,263.3,305.7,261z M204.1,151.1
	c0-6.3,3.5-10.4,11.4-10.4s11.4,4.2,11.4,10.4v3c0,6.3-3.5,10.4-11.4,10.4s-11.4-4.2-11.4-10.4V151.1z M186.7,342.5h19.5V192.6h18.6
	v138.3c0,16.5-8.1,27.8-26,27.8h-12.1V342.5z M140.8,298.6c0-7.9,4.4-13.4,14.1-13.4c9.7,0,14.1,5.6,14.1,13.4v3
	c0,7.9-4.4,13.4-14.1,13.4c-9.7,0-14.1-5.6-14.1-13.4V298.6z"/>
<path class="st2" d="M504.4,1.7H7.6c-3.3,0-6,3.5-6,7.8v494.4c0,4.3,2.7,7.8,6,7.8h496.9c3.3,0,6-3.5,6-7.8V9.5
	C510.4,5.2,507.7,1.7,504.4,1.7z M492.6,490.3H19.4V19.8h473.2V490.3z"/>
<path class="st4" d="M255.5,93.6c-93.7,0-169.6,75.5-169.6,168.4c0,68.3,40.9,127,99.8,153.4c6.2,2.8,12.2,1.7,16.9-1.9
	c4.8-3.6,8.2-9.8,8.2-17.1v-8.8l-21-2.8c-0.2,0-0.3,0-0.5-0.1c-11.6-2.3-19.4-6.3-25.1-12.2c-4.8-4.9-7.8-10.9-10.2-15.9
	c-0.3-0.6-0.6-1.2-0.9-1.7c-3.2-6.3-5.4-10.7-7.5-14.1c-2.1-3.3-3.7-5-5.3-6.1c-4.1-2.7-8-7.3-8-13.1c0-3.2,1.3-6.4,4-8.7
	c2.6-2.2,5.7-2.8,8.4-2.8c3.4,0,6.7,1.1,9.4,2.3c2.8,1.2,5.5,2.9,8,4.6c6.2,4.1,12.4,9.1,17.5,15.1c5.4,6.3,9.2,10.3,15,11.1
	c4.7,0.7,9.6,0.7,13.3,0.5c0.2-0.9,0.4-1.8,0.6-2.8c0.4-1.8,1.1-3.8,2-5.8c-4.3-1-8.9-2.3-13.6-4c-10.1-3.6-21.4-9.2-29-17.7
	c-8.3-9.3-13.5-17.6-16.4-27.3c-2.8-9.5-3.3-19.7-3.3-32.4c0-19.3,8.4-35.6,14.7-44.3c-2.1-6.6-4.2-15.1-5.2-23.2
	c-0.6-5-0.8-10.3,0-15c0.8-4.5,2.7-10.1,7.8-13.5c4.9-3.3,10.7-3.1,15.1-2.3c4.7,0.9,9.5,2.8,14,5c7.3,3.6,14.5,8.4,19.9,12.5
	c9.3-2.7,25.8-6.3,40.7-6.6c0.1,0,0.2,0,0.4,0c14.9,0.3,30.7,3.8,39.7,6.6c5.4-4.1,12.6-8.9,19.9-12.4c4.5-2.2,9.3-4.1,14-5
	c4.5-0.8,10.2-1,15.1,2.3c5.1,3.4,7,8.9,7.8,13.5c0.8,4.7,0.6,10,0,15c-1,8.1-3.1,16.7-5.2,23.2c6.3,8.6,14.7,25,14.7,44.3
	c0,12.6-0.5,22.9-3.3,32.4c-2.9,9.7-8,18-16.4,27.3c-7.6,8.5-18.9,14.1-29,17.7c-5.7,2-11.4,3.5-16.4,4.6c1.9,5.8,2.6,10.4,2.6,13.1
	v47.8c0,7.3,3.4,13.5,8.2,17.1c4.7,3.5,10.7,4.7,16.9,1.9c59.4-26.2,100.8-85.1,100.8-153.7C425.1,169.1,349.3,93.6,255.5,93.6z
	 M216.5,359.3C212.5,359.9,216.4,359.3,216.5,359.3L216.5,359.3l-0.2,0l-0.4,0.1c-0.4,0-0.9,0.1-1.6,0.2c-1.3,0.1-3.2,0.3-5.4,0.4
	c-4.4,0.2-10.4,0.2-16.5-0.7c-12.3-1.7-19.7-10.4-24.5-16c-0.2-0.2-0.3-0.4-0.5-0.5c-1.5-1.8-3.2-3.5-5.1-5.1c1.6,2.9,3.2,6.2,5,9.8
	l0.2,0.3c0.3,0.5,0.5,1.1,0.8,1.6c2.7,5.4,4.5,9,7.4,12c2.9,2.9,7.4,5.8,16.4,7.6l27.8,3.8c4,0.5,7,4,7,8v15.9
	c0,12.4-5.8,23.4-14.7,30.1c-9,6.8-21.2,9-33.2,3.7C114.7,401.4,69.8,337,69.8,262.1c0-102,83.2-184.6,185.7-184.6
	c102.5,0,185.7,82.6,185.7,184.6c0,75.3-45.5,139.9-110.5,168.5c-11.9,5.3-24.1,3-33.1-3.8c-8.9-6.7-14.6-17.7-14.6-30v-47.8
	c0-1.1-0.8-7.3-5-15.8c-1.2-2.4-1.2-5.2,0.1-7.5c1.3-2.3,3.6-3.9,6.2-4.2c5.3-0.6,14.2-2.3,23.3-5.5c9.2-3.3,17.4-7.7,22.4-13.2
	c7.3-8.1,10.9-14.4,12.9-21.2c2.1-7,2.6-15.2,2.6-27.8c0-17.7-9.3-32.5-13.6-37.3c-2-2.2-2.6-5.3-1.6-8.1c2.2-6.1,4.8-15.6,5.8-24.1
	c0.5-4.3,0.5-7.8,0.1-10.4c-0.3-1.7-0.7-2.4-0.8-2.7c-0.3-0.1-1.2-0.2-3.2,0.1c-2.6,0.5-6,1.7-9.8,3.6c-7.6,3.8-15.5,9.3-20.4,13.3
	c-2.2,1.8-5.2,2.3-7.8,1.3c-6.2-2.2-23.2-6.6-38.7-7c-15.6,0.4-33.6,4.8-39.7,7c-2.7,1-5.6,0.5-7.8-1.3c-4.9-4-12.8-9.5-20.4-13.3
	c-3.8-1.9-7.2-3.1-9.8-3.6c-2-0.4-2.9-0.2-3.2-0.1c-0.2,0.2-0.5,0.9-0.8,2.7c-0.4,2.6-0.4,6.1,0.1,10.4c1,8.5,3.6,18,5.8,24.1
	c1,2.8,0.4,5.9-1.6,8.1c-4.3,4.8-13.6,19.6-13.6,37.3c0,12.6,0.5,20.8,2.6,27.8c2,6.8,5.6,13,12.9,21.2c4.9,5.5,13.2,9.9,22.4,13.2
	c9,3.2,18,4.9,23.3,5.5c3.3,0.4,6.1,2.8,6.9,6c0.8,3.2-0.4,6.7-3.1,8.6c-2.6,1.8-4.2,5.1-5.2,8.9c-0.5,1.8-0.7,3.4-0.8,4.6
	c-0.1,0.6-0.1,1.1-0.1,1.3l0,0.3C223.4,355.3,220.5,358.7,216.5,359.3z"/>
</svg>
