<?xml version="1.0" encoding="utf-8"?>
<!-- Generator: Adobe Illustrator 25.2.1, SVG Export Plug-In . SVG Version: 6.00 Build 0)  -->
<svg version="1.1" id="Layer_1" xmlns="http://www.w3.org/2000/svg" xmlns:xlink="http://www.w3.org/1999/xlink" x="0px" y="0px"
	 viewBox="0 0 48 48" style="enable-background:new 0 0 48 48;" xml:space="preserve">
<style type="text/css">
	.st0{display:none;fill-rule:evenodd;clip-rule:evenodd;}
	.st1{fill-rule:evenodd;clip-rule:evenodd;}
</style>
<path class="st0" d="M24,0C10.7,0,0,10.7,0,24s10.7,24,24,24s24-10.7,24-24S37.3,0,24,0z M11.5,19.9H17v16.3h-5.4V19.9H11.5z
	 M17.3,14.8c0-1.6-1.2-2.8-3-2.8c-1.9,0-3.1,1.2-3.1,2.8s1.2,2.8,3,2.8l0,0C16.1,17.6,17.3,16.4,17.3,14.8z M30.3,19.5
	c3.6,0,6.3,2.3,6.3,7.4v9.4h-5.4v-8.7c0-2.2-0.8-3.7-2.8-3.7c-1.5,0-2.4,1-2.8,2c-0.1,0.3-0.2,0.8-0.2,1.3v9.1H20
	c0,0,0.1-14.8,0-16.3h5.4v2.3C26.1,21.1,27.4,19.5,30.3,19.5z"/>
<g id="Page-1">
	<g id="Dribbble-Light-Preview" transform="translate(-140.000000, -7559.000000)">
		<g id="icons" transform="translate(56.000000, 160.000000)">
			<path id="github-_x5B__x23_142_x5D_" class="st1" d="M108,7399c13.3,0,24,11,24,24.6c0,10.9-6.9,20.1-16.4,23.3
				c-1.2,0.2-1.6-0.5-1.6-1.2c0-0.8,0-3.5,0-6.8c0-2.3-0.8-3.8-1.6-4.6c5.3-0.6,11-2.7,11-12.1c0-2.7-0.9-4.9-2.5-6.6
				c0.2-0.6,1.1-3.1-0.2-6.5c0,0-2-0.7-6.6,2.5c-1.9-0.5-4-0.8-6-0.8s-4.1,0.3-6,0.8c-4.6-3.2-6.6-2.5-6.6-2.5
				c-1.3,3.4-0.5,5.9-0.2,6.5c-1.5,1.7-2.5,3.9-2.5,6.6c0,9.4,5.6,11.5,10.9,12.2c-0.7,0.6-1.3,1.7-1.5,3.3c-1.4,0.6-4.8,1.7-7-2
				c0,0-1.3-2.4-3.7-2.5c0,0-2.3,0-0.2,1.5c0,0,1.6,0.8,2.7,3.6c0,0,1.4,4.4,8.1,2.9c0,2.1,0,4,0,4.6c0,0.7-0.4,1.4-1.6,1.2
				c-9.5-3.3-16.4-12.5-16.4-23.3C84,7410,94.7,7399,108,7399"/>
		</g>
	</g>
</g>
</svg>
