<?xml version="1.0" encoding="utf-8"?>
<!-- Generator: Adobe Illustrator 25.2.1, SVG Export Plug-In . SVG Version: 6.00 Build 0)  -->
<svg version="1.1" id="Layer_1" xmlns="http://www.w3.org/2000/svg" xmlns:xlink="http://www.w3.org/1999/xlink" x="0px" y="0px"
	 viewBox="0 0 512 512" style="enable-background:new 0 0 512 512;" xml:space="preserve">
<style type="text/css">
	.st0{fill:#CCFF00;}
</style>
<g>
	<g>
		<path class="st0" d="M487.9,3.5C485.9,1.3,483,0,480,0H32c-3,0-5.9,1.3-7.9,3.5c-2,2.2-3,5.2-2.7,8.2L64,438.4
			c0.4,4.2,3.2,7.7,7.2,9l192,64c1.1,0.4,2.2,0.6,3.4,0.6c1.3,0,2.5-0.2,3.8-0.7l170.7-64c3.8-1.4,6.5-4.9,6.9-8.9l42.7-426.7
			C490.9,8.7,489.9,5.7,487.9,3.5z M427.3,429.7L266.4,490L84.6,429.4L43.8,21.3h424.4L427.3,429.7z"/>
	</g>
</g>
<g>
	<g>
		<path class="st0" d="M394.6,106.7h-256c-3,0-5.9,1.3-7.9,3.5c-2,2.2-3,5.2-2.7,8.2l10.7,106.7c0.6,5.4,5.1,9.6,10.6,9.6h211.6
			l-18.5,120.2l-75.9,28.5l-86.5-28.9l-9.5-47.3c-1.2-5.8-6.7-9.5-12.5-8.4c-5.8,1.2-9.5,6.8-8.4,12.5l10.7,53.3
			c0.7,3.8,3.5,6.8,7.1,8l96,32c1.1,0.4,2.2,0.6,3.4,0.6c1.3,0,2.5-0.2,3.8-0.7l85.3-32c3.6-1.3,6.2-4.5,6.8-8.4l21.3-138.7
			c0.5-3.1-0.4-6.2-2.5-8.6c-2-2.4-5-3.7-8.1-3.7H159l-8.5-85.3h244.2c5.9,0,10.7-4.8,10.7-10.7S400.5,106.7,394.6,106.7z"/>
	</g>
</g>
</svg>
