<?xml version="1.0" encoding="utf-8"?>
<!-- Generator: Adobe Illustrator 25.2.1, SVG Export Plug-In . SVG Version: 6.00 Build 0)  -->
<svg version="1.1" id="Layer_1" xmlns="http://www.w3.org/2000/svg" xmlns:xlink="http://www.w3.org/1999/xlink" x="0px" y="0px"
	 viewBox="0 0 512 512" style="enable-background:new 0 0 512 512;" xml:space="preserve">
<style type="text/css">
	.st0{display:none;}
	.st1{display:inline;}
	.st2{fill:#CCFF00;}
	.st3{fill:none;}
</style>
<g class="st0">
	<g class="st1">
		<path class="st2" d="M487.9,3.5C485.9,1.3,483,0,480,0H32c-3,0-5.9,1.3-7.9,3.5s-3,5.2-2.7,8.2L64,438.4c0.4,4.2,3.2,7.7,7.2,9
			l192,64c1.1,0.4,2.2,0.6,3.4,0.6c1.3,0,2.5-0.2,3.8-0.7l170.7-64c3.8-1.4,6.5-4.9,6.9-8.9l42.7-426.7
			C490.9,8.7,489.9,5.7,487.9,3.5z M427.3,429.7L266.4,490L84.6,429.4L43.8,21.3h424.4L427.3,429.7z"/>
	</g>
</g>
<g class="st0">
	<g class="st1">
		<path class="st2" d="M402.8,110.5c-2-2.4-5-3.8-8.2-3.8h-256c-5.9,0-10.7,4.8-10.7,10.7s4.8,10.7,10.7,10.7H382l-14.8,85.3H149.3
			c-5.9,0-10.7,4.8-10.7,10.7s4.8,10.7,10.7,10.7h214.1L342.5,355l-76.1,28.5l-86.5-28.9l-9.5-47.3c-1.1-5.8-6.7-9.5-12.5-8.4
			c-5.8,1.2-9.5,6.8-8.4,12.5l10.7,53.3c0.7,3.8,3.5,6.8,7.1,8l96,32c1.1,0.4,2.2,0.6,3.4,0.6c1.3,0,2.5-0.2,3.8-0.7l85.3-32
			c3.5-1.3,6.1-4.4,6.8-8.2l42.7-245.3C405.7,116.1,404.8,112.9,402.8,110.5z"/>
	</g>
</g>
<path class="st3" d="M13.4,438.9h485v-369h-485C13.4,69.9,13.4,438.9,13.4,438.9z M305.7,261l-9.5-1.4c-22-3.2-38.5-12.3-38.5-34.6
	c0-23.7,18.3-35.3,42.7-35.3c19.3,0,32,7.2,41.8,19.3l-12.3,11.1c-5.3-7.4-15.5-14.6-30.9-14.6c-15.3,0-23.4,7.2-23.4,18.6
	c0,11.6,8.1,16.2,23,18.6l9.3,1.4c26.5,3.9,36.7,15.5,36.7,33.6c0,23.2-16.9,37.3-44.3,37.3c-22.1,0-36.7-9.3-47.4-23.4L266,281
	c9.3,11.6,20.4,18.3,35.5,18.3c15.8,0,25.1-7.2,25.1-19.5C326.6,270.5,321.5,263.3,305.7,261z M204.1,151.1
	c0-6.3,3.5-10.4,11.4-10.4s11.4,4.2,11.4,10.4v3c0,6.3-3.5,10.4-11.4,10.4s-11.4-4.2-11.4-10.4V151.1z M186.7,342.5h19.5V192.6h18.6
	v138.3c0,16.5-8.1,27.8-26,27.8h-12.1V342.5z M140.8,298.6c0-7.9,4.4-13.4,14.1-13.4c9.7,0,14.1,5.6,14.1,13.4v3
	c0,7.9-4.4,13.4-14.1,13.4c-9.7,0-14.1-5.6-14.1-13.4V298.6z"/>
<path class="st2" d="M504.4,1.7H7.6c-3.3,0-6,3.5-6,7.8v494.4c0,4.3,2.7,7.8,6,7.8h496.9c3.3,0,6-3.5,6-7.8V9.5
	C510.4,5.2,507.7,1.7,504.4,1.7z M492.6,490.3H19.4V19.8h473.2V490.3z"/>
<g>
	<path class="st2" d="M347.6,333.2c-23.5,0-40.8-10.4-55.3-28.5l-20.6,16.6c16.6,22,39.4,36.5,73.7,36.5c42.6,0,68.9-22,68.9-58.1
		c0-28.2-15.9-46.2-57-52.3l-14.5-2.2c-23.1-3.6-35.8-10.9-35.8-28.9c0-17.7,12.6-28.9,36.5-28.9c23.8,0,39.7,11.2,48,22.7
		l19.1-17.3c-15.1-18.8-35-30-65-30c-37.9,0-66.4,18-66.4,54.9c0,34.6,25.6,48.7,60,53.8l14.8,2.2c24.5,3.6,32.5,14.8,32.5,29.3
		C386.6,322,372.2,333.2,347.6,333.2z"/>
	<path class="st2" d="M213.7,123.5c12.3,0,17.7-6.5,17.7-16.2v-4.7c0-9.7-5.4-16.2-17.7-16.2S196,92.9,196,102.6v4.7
		C196,117,201.4,123.5,213.7,123.5z"/>
	<path class="st2" d="M228.2,382.4V167.2h-28.9v233.2H169v25.3h18.8C215.5,425.7,228.2,408,228.2,382.4z"/>
	<path class="st2" d="M119.6,357.8c15.2,0,22-8.6,22-20.9v-4.7c0-12.3-6.9-20.9-22-20.9c-15.2,0-22,8.7-22,20.9v4.7
		C97.5,349.2,104.4,357.8,119.6,357.8z"/>
</g>
</svg>
