<?xml version="1.0" encoding="utf-8"?>
<!-- Generator: Adobe Illustrator 25.2.1, SVG Export Plug-In . SVG Version: 6.00 Build 0)  -->
<svg version="1.1" id="Layer_1" xmlns="http://www.w3.org/2000/svg" xmlns:xlink="http://www.w3.org/1999/xlink" x="0px" y="0px"
	 viewBox="0 0 264.5 64.9" style="enable-background:new 0 0 264.5 64.9;" xml:space="preserve">
<g>
	<g>
		<path d="M30.3,11.5V37c0,0.4-0.3,0.7-0.7,0.7h-6c-0.4,0-0.7-0.3-0.7-0.7v-9c0-0.4-0.3-0.7-0.7-0.7h-8.3c-0.4,0-0.7,0.3-0.7,0.7v9
			c0,0.4-0.3,0.7-0.7,0.7h-6c-0.4,0-0.7-0.3-0.7-0.7V11.5c0-0.4,0.3-0.7,0.7-0.7h6c0.4,0,0.7,0.3,0.7,0.7v8.3c0,0.4,0.3,0.7,0.7,0.7
			h8.3c0.4,0,0.7-0.3,0.7-0.7v-8.3c0-0.4,0.3-0.7,0.7-0.7h6C30,10.7,30.3,11.1,30.3,11.5z"/>
		<path d="M57.3,31.7V37c0,0.4-0.3,0.7-0.7,0.7H37.1c-0.4,0-0.7-0.3-0.7-0.7V11.5c0-0.4,0.3-0.7,0.7-0.7h18.5c0.4,0,0.7,0.3,0.7,0.7
			v5.3c0,0.4-0.3,0.7-0.7,0.7h-11c-0.4,0-0.7,0.3-0.7,0.7V20c0,0.4,0.3,0.7,0.7,0.7h7.7c0.4,0,0.7,0.3,0.7,0.7v5
			c0,0.4-0.3,0.7-0.7,0.7h-7.7c-0.4,0-0.7,0.3-0.7,0.7V30c0,0.4,0.3,0.7,0.7,0.7h12C57,31,57.3,31.3,57.3,31.7z"/>
		<path d="M83.8,11.8L72.5,37.2c-0.1,0.3-0.4,0.4-0.7,0.4h-6.6c-0.5,0-0.9-0.6-0.7-1l3.8-8.3c0.1-0.2,0.1-0.4,0-0.6L60,11.8
			c-0.3-0.5,0.1-1.1,0.7-1.1h6.5c0.3,0,0.6,0.2,0.7,0.4l3.4,7.5c0.3,0.6,1.1,0.6,1.3,0l3.4-7.5c0.1-0.3,0.4-0.4,0.7-0.4H83
			C83.6,10.7,84,11.3,83.8,11.8z"/>
		<path d="M106.6,29.5c0,5.5-3.9,9-10.2,9c-4.7,0-8.2-1.9-10.1-5.8c-0.2-0.4,0-0.8,0.3-1L92,29c0.4-0.2,0.8,0,1,0.3
			c0.6,1.4,1.7,2.1,3.1,2.1c1.8,0,2.9-1.2,2.9-3.2v-10c0-0.4-0.3-0.7-0.7-0.7h-5.4c-0.4,0-0.7-0.3-0.7-0.7v-5.3
			c0-0.4,0.3-0.7,0.7-0.7h12.9c0.4,0,0.7,0.3,0.7,0.7L106.6,29.5L106.6,29.5z"/>
		<path d="M125.5,10c8.5-0.1,15,6.1,14.9,14.2c0.1,8.1-6.4,14.3-14.9,14.2c-8.5,0.1-15-6.1-14.9-14.2C110.6,16.1,117,9.8,125.5,10z
			 M125.5,16.9c-3.9,0-6.8,3.1-6.8,7.3s2.9,7.3,6.8,7.3c3.9,0,6.8-3.1,6.8-7.3S129.5,16.9,125.5,16.9z"/>
		<path d="M169.6,11.5V37c0,0.4-0.3,0.7-0.7,0.7h-6c-0.4,0-0.7-0.3-0.7-0.7v-9c0-0.4-0.3-0.7-0.7-0.7h-8.3c-0.4,0-0.7,0.3-0.7,0.7v9
			c0,0.4-0.3,0.7-0.7,0.7h-6c-0.4,0-0.7-0.3-0.7-0.7V11.5c0-0.4,0.3-0.7,0.7-0.7h6c0.4,0,0.7,0.3,0.7,0.7v8.3c0,0.4,0.3,0.7,0.7,0.7
			h8.3c0.4,0,0.7-0.3,0.7-0.7v-8.3c0-0.4,0.3-0.7,0.7-0.7h6C169.3,10.7,169.6,11.1,169.6,11.5z"/>
		<path d="M176.3,10.7h7.4c0.3,0,0.5,0.1,0.6,0.4l7,11.9c0.4,0.6,1.4,0.4,1.4-0.4V11.5c0-0.4,0.3-0.7,0.7-0.7h6
			c0.4,0,0.7,0.3,0.7,0.7V37c0,0.4-0.3,0.7-0.7,0.7H192c-0.3,0-0.5-0.1-0.6-0.4l-7-11.9c-0.4-0.6-1.4-0.4-1.4,0.4V37
			c0,0.4-0.3,0.7-0.7,0.7h-6c-0.4,0-0.7-0.3-0.7-0.7V11.5C175.6,11.1,175.9,10.7,176.3,10.7z"/>
		<path d="M207,10.7h7.4c0.3,0,0.5,0.1,0.6,0.4l7,11.9c0.4,0.6,1.4,0.4,1.4-0.4V11.5c0-0.4,0.3-0.7,0.7-0.7h6c0.4,0,0.7,0.3,0.7,0.7
			V37c0,0.4-0.3,0.7-0.7,0.7h-7.4c-0.3,0-0.5-0.1-0.6-0.4l-7-11.9c-0.4-0.6-1.4-0.4-1.4,0.4V37c0,0.4-0.3,0.7-0.7,0.7h-6
			c-0.4,0-0.7-0.3-0.7-0.7V11.5C206.3,11.1,206.6,10.7,207,10.7z"/>
		<path d="M258.6,11.8l-11.2,25.5c-0.1,0.3-0.4,0.4-0.7,0.4h-6.6c-0.5,0-0.9-0.6-0.7-1l3.8-8.3c0.1-0.2,0.1-0.4,0-0.6l-8.3-16
			c-0.3-0.5,0.1-1.1,0.7-1.1h6.5c0.3,0,0.6,0.2,0.7,0.4l3.4,7.5c0.3,0.6,1.1,0.6,1.3,0l3.4-7.5c0.1-0.3,0.4-0.4,0.7-0.4h6.3
			C258.4,10.7,258.8,11.3,258.6,11.8z"/>
	</g>
	<g>
		<path d="M62.7,54.4v-7.9h2.8c0.9,0,1.6,0.2,2.1,0.5c0.6,0.3,1,0.8,1.3,1.4c0.3,0.6,0.4,1.2,0.4,2s-0.2,1.5-0.5,2.1s-0.8,1-1.3,1.4
			c-0.6,0.3-1.3,0.5-2,0.5H62.7z M67.8,50.4c0-0.5-0.1-1-0.3-1.3c-0.2-0.4-0.4-0.7-0.8-0.9c-0.3-0.2-0.8-0.3-1.3-0.3h-1.3v5.2h1.3
			c0.5,0,0.9-0.1,1.3-0.3c0.3-0.2,0.6-0.5,0.8-0.9C67.7,51.4,67.8,50.9,67.8,50.4z"/>
		<path d="M76.4,53v1.3H71v-7.8h5.3v1.3h-3.8v1.9h3.3v1.2h-3.3v2L76.4,53L76.4,53z"/>
		<path d="M78.8,46.5l2.1,6l2.1-6h1.6l-3,7.8h-1.5l-3-7.8H78.8z"/>
		<path d="M91.4,53v1.3h-5.5v-7.8h5.3v1.3h-3.8v1.9h3.3v1.2h-3.3v2L91.4,53L91.4,53z"/>
		<path d="M93,54.4v-7.9h1.5V53h4v1.3H93V54.4z"/>
		<path d="M103,54.4c-0.6,0-1.1-0.1-1.6-0.3s-0.9-0.5-1.2-0.9c-0.3-0.4-0.6-0.8-0.8-1.3c-0.2-0.5-0.3-1-0.3-1.5s0.1-1,0.3-1.5
			s0.5-0.9,0.8-1.3c0.3-0.4,0.7-0.7,1.2-0.9s1-0.3,1.5-0.3c0.6,0,1.1,0.1,1.5,0.3c0.5,0.2,0.9,0.5,1.2,0.9c0.3,0.4,0.6,0.8,0.8,1.3
			c0.2,0.5,0.3,1,0.3,1.5s-0.1,1-0.3,1.5s-0.5,0.9-0.8,1.3c-0.3,0.4-0.7,0.7-1.2,0.9C104.1,54.3,103.6,54.4,103,54.4z M100.7,50.5
			c0,0.3,0.1,0.7,0.2,1s0.3,0.6,0.4,0.8c0.2,0.2,0.4,0.4,0.7,0.6c0.3,0.1,0.6,0.2,1,0.2s0.7-0.1,1-0.2c0.3-0.2,0.5-0.4,0.7-0.6
			c0.2-0.3,0.3-0.5,0.4-0.8s0.1-0.6,0.1-0.9c0-0.3-0.1-0.7-0.2-1s-0.3-0.6-0.5-0.8s-0.4-0.4-0.7-0.6c-0.3-0.1-0.6-0.2-1-0.2
			s-0.7,0.1-1,0.2c-0.3,0.2-0.5,0.4-0.7,0.6c-0.2,0.2-0.3,0.5-0.4,0.8C100.8,49.8,100.7,50.1,100.7,50.5z"/>
		<path d="M108.4,54.4v-7.9h3.3c0.4,0,0.7,0.1,1,0.2c0.3,0.1,0.6,0.3,0.8,0.6c0.2,0.2,0.4,0.5,0.5,0.8s0.2,0.6,0.2,0.9
			c0,0.4-0.1,0.9-0.3,1.3c-0.2,0.4-0.5,0.7-0.8,1c-0.4,0.2-0.8,0.4-1.3,0.4H110v2.6h-1.6V54.4z M110,50.4h1.8c0.2,0,0.3-0.1,0.5-0.2
			c0.1-0.1,0.3-0.3,0.4-0.4c0.1-0.2,0.1-0.4,0.1-0.7s0-0.5-0.1-0.7s-0.2-0.3-0.4-0.4c-0.2-0.1-0.3-0.1-0.5-0.1h-1.7v2.5H110z"/>
		<path d="M121.2,53v1.3h-5.4v-7.8h5.3v1.3h-3.8v1.9h3.3v1.2h-3.3v2L121.2,53L121.2,53z"/>
		<path d="M122.8,54.4v-7.9h3.5c0.4,0,0.7,0.1,1,0.2c0.3,0.1,0.6,0.3,0.8,0.6c0.2,0.3,0.4,0.5,0.5,0.8s0.2,0.6,0.2,0.9
			c0,0.3-0.1,0.6-0.2,1c-0.1,0.3-0.3,0.6-0.5,0.8c-0.2,0.2-0.5,0.4-0.7,0.5l1.8,2.9h-1.7l-1.6-2.6h-1.5v2.6h-1.6V54.4z M124.3,50.4
			h1.9c0.2,0,0.4-0.1,0.5-0.2c0.1-0.1,0.3-0.3,0.4-0.5s0.1-0.4,0.1-0.6c0-0.2-0.1-0.5-0.2-0.7s-0.2-0.3-0.4-0.4
			c-0.2-0.1-0.3-0.2-0.5-0.2h-1.8V50.4z"/>
		<path d="M138.7,54.4l-3.7-3.9c-0.3-0.3-0.6-0.6-0.7-0.8c-0.2-0.2-0.3-0.5-0.4-0.6c-0.1-0.2-0.1-0.4-0.1-0.6c0-0.4,0.1-0.7,0.3-1
			s0.4-0.5,0.8-0.6c0.3-0.2,0.7-0.2,1.1-0.2c0.4,0,0.7,0.1,1,0.2c0.3,0.1,0.6,0.3,0.8,0.6s0.3,0.6,0.3,0.9c0,0.3-0.1,0.6-0.3,0.9
			s-0.4,0.5-0.7,0.8c-0.3,0.2-0.6,0.5-1,0.7c-0.3,0.2-0.5,0.3-0.7,0.5s-0.4,0.3-0.5,0.5s-0.2,0.4-0.2,0.6c0,0.2,0.1,0.4,0.2,0.6
			c0.1,0.2,0.3,0.3,0.5,0.4c0.2,0.1,0.4,0.2,0.7,0.2s0.6-0.1,0.9-0.2c0.3-0.2,0.6-0.4,0.8-0.7s0.4-0.6,0.6-1
			c0.1-0.4,0.2-0.8,0.2-1.3h1.2c0,0.7-0.1,1.3-0.3,1.9c-0.2,0.5-0.5,1-0.9,1.4s-0.8,0.7-1.2,0.9c-0.5,0.2-0.9,0.3-1.4,0.3
			s-1-0.1-1.4-0.3s-0.7-0.5-0.9-0.8s-0.3-0.7-0.3-1.1s0.1-0.8,0.3-1.1s0.4-0.6,0.7-0.8s0.6-0.4,0.9-0.6c0.3-0.2,0.6-0.4,0.8-0.5
			s0.4-0.3,0.5-0.4c0.1-0.1,0.2-0.3,0.2-0.5s-0.1-0.4-0.2-0.5s-0.3-0.2-0.5-0.2s-0.3,0-0.4,0.1c-0.1,0.1-0.2,0.2-0.3,0.3
			s-0.1,0.2-0.1,0.4c0,0.1,0,0.2,0.1,0.3s0.2,0.2,0.3,0.4c0.2,0.2,0.4,0.4,0.7,0.7l4.5,4.7h-2.2V54.4z"/>
		<path d="M145,54.4v-7.9h2.8c0.9,0,1.6,0.2,2.1,0.5c0.6,0.3,1,0.8,1.3,1.4c0.3,0.6,0.4,1.2,0.4,2s-0.2,1.5-0.5,2.1s-0.8,1-1.3,1.4
			c-0.6,0.3-1.3,0.5-2,0.5H145z M150.2,50.4c0-0.5-0.1-1-0.3-1.3c-0.2-0.4-0.4-0.7-0.8-0.9c-0.3-0.2-0.8-0.3-1.3-0.3h-1.3v5.2h1.3
			c0.5,0,0.9-0.1,1.3-0.3c0.3-0.2,0.6-0.5,0.8-0.9C150.1,51.4,150.2,50.9,150.2,50.4z"/>
		<path d="M158.8,53v1.3h-5.4v-7.8h5.3v1.3h-3.8v1.9h3.3v1.2h-3.3v2L158.8,53L158.8,53z"/>
		<path d="M165,48.6c-0.1-0.1-0.1-0.1-0.3-0.2c-0.1-0.1-0.3-0.2-0.5-0.3s-0.4-0.2-0.6-0.2c-0.2-0.1-0.5-0.1-0.7-0.1
			c-0.4,0-0.7,0.1-0.9,0.2c-0.2,0.2-0.3,0.4-0.3,0.6c0,0.2,0.1,0.4,0.2,0.5c0.1,0.1,0.3,0.2,0.6,0.3s0.6,0.2,1,0.3
			c0.5,0.1,1,0.3,1.3,0.5c0.4,0.2,0.7,0.4,0.9,0.7s0.3,0.7,0.3,1.1c0,0.4-0.1,0.8-0.2,1.1c-0.2,0.3-0.4,0.5-0.6,0.7
			c-0.3,0.2-0.6,0.3-0.9,0.4c-0.3,0.1-0.7,0.1-1.1,0.1s-0.8,0-1.2-0.1s-0.8-0.2-1.1-0.3c-0.4-0.2-0.7-0.3-1-0.5l0.7-1.3
			c0.1,0.1,0.2,0.2,0.4,0.3s0.4,0.2,0.6,0.3c0.2,0.1,0.5,0.2,0.8,0.3s0.6,0.1,0.9,0.1c0.4,0,0.7-0.1,0.9-0.2
			c0.2-0.1,0.3-0.3,0.3-0.6c0-0.2-0.1-0.4-0.3-0.5s-0.4-0.2-0.7-0.3s-0.7-0.2-1.1-0.3c-0.5-0.1-0.9-0.3-1.2-0.5s-0.6-0.4-0.7-0.7
			c-0.2-0.3-0.2-0.6-0.2-1c0-0.5,0.1-1,0.4-1.3c0.3-0.4,0.6-0.6,1-0.8s0.9-0.3,1.4-0.3c0.4,0,0.7,0,1,0.1s0.6,0.2,0.9,0.3
			c0.3,0.1,0.5,0.3,0.8,0.4L165,48.6z"/>
		<path d="M167.6,54.4v-7.9h1.5v7.8h-1.5V54.4z"/>
		<path d="M174.4,54.4c-0.5,0-1-0.1-1.4-0.3c-0.5-0.2-0.9-0.5-1.2-0.9s-0.6-0.8-0.8-1.3s-0.3-1-0.3-1.6c0-0.5,0.1-1,0.3-1.5
			s0.5-0.9,0.8-1.2s0.7-0.6,1.2-0.8s1-0.3,1.5-0.3c0.7,0,1.4,0.2,1.9,0.5s0.9,0.7,1.2,1.2l-1.1,0.8c-0.2-0.4-0.5-0.7-0.8-0.9
			c-0.4-0.2-0.7-0.3-1.2-0.3c-0.3,0-0.6,0.1-0.9,0.2c-0.3,0.1-0.5,0.3-0.7,0.6c-0.2,0.2-0.4,0.5-0.5,0.8s-0.2,0.7-0.2,1
			c0,0.4,0.1,0.7,0.2,1c0.1,0.3,0.3,0.6,0.5,0.8s0.5,0.4,0.7,0.6c0.3,0.1,0.6,0.2,0.9,0.2c0.4,0,0.8-0.1,1.1-0.3
			c0.4-0.2,0.7-0.5,1-0.9v1.5C176.1,54.1,175.3,54.4,174.4,54.4z M176.6,51.5H175v-1.1h2.8v4h-1.3v-2.9H176.6z"/>
		<path d="M181.1,49.3v5h-1.5v-7.8h1.2l4,5.2v-5.1h1.5v7.8H185L181.1,49.3z"/>
		<path d="M193.9,53v1.3h-5.4v-7.8h5.3v1.3H190v1.9h3.3v1.2H190v2L193.9,53L193.9,53z"/>
		<path d="M195.5,54.4v-7.9h3.5c0.4,0,0.7,0.1,1,0.2c0.3,0.1,0.6,0.3,0.8,0.6s0.4,0.5,0.5,0.8s0.2,0.6,0.2,0.9c0,0.3-0.1,0.6-0.2,1
			c-0.1,0.3-0.3,0.6-0.5,0.8s-0.5,0.4-0.7,0.5l1.8,2.9h-1.7l-1.6-2.6h-1.5v2.6h-1.6V54.4z M197,50.4h1.9c0.2,0,0.4-0.1,0.5-0.2
			c0.1-0.1,0.3-0.3,0.4-0.5c0.1-0.2,0.1-0.4,0.1-0.6c0-0.2-0.1-0.5-0.2-0.7s-0.2-0.3-0.4-0.4c-0.2-0.1-0.3-0.2-0.5-0.2H197V50.4z"/>
	</g>
</g>
</svg>
