<?xml version="1.0" encoding="utf-8"?>
<!-- Generator: Adobe Illustrator 25.2.1, SVG Export Plug-In . SVG Version: 6.00 Build 0)  -->
<svg version="1.1" id="Layer_1" xmlns="http://www.w3.org/2000/svg" xmlns:xlink="http://www.w3.org/1999/xlink" x="0px" y="0px"
	 viewBox="0 0 512 512" style="enable-background:new 0 0 512 512;" xml:space="preserve">
<style type="text/css">
	.st0{display:none;}
	.st1{display:inline;}
	.st2{fill:#CCFF00;}
	.st3{fill:none;}
</style>
<g class="st0">
	<g class="st1">
		<path class="st2" d="M487.9,3.5C485.9,1.3,483,0,480,0H32c-3,0-5.9,1.3-7.9,3.5s-3,5.2-2.7,8.2L64,438.4c0.4,4.2,3.2,7.7,7.2,9
			l192,64c1.1,0.4,2.2,0.6,3.4,0.6c1.3,0,2.5-0.2,3.8-0.7l170.7-64c3.8-1.4,6.5-4.9,6.9-8.9l42.7-426.7
			C490.9,8.7,489.9,5.7,487.9,3.5z M427.3,429.7L266.4,490L84.6,429.4L43.8,21.3h424.4L427.3,429.7z"/>
	</g>
</g>
<g class="st0">
	<g class="st1">
		<path class="st2" d="M402.8,110.5c-2-2.4-5-3.8-8.2-3.8h-256c-5.9,0-10.7,4.8-10.7,10.7s4.8,10.7,10.7,10.7H382l-14.8,85.3H149.3
			c-5.9,0-10.7,4.8-10.7,10.7s4.8,10.7,10.7,10.7h214.1L342.5,355l-76.1,28.5l-86.5-28.9l-9.5-47.3c-1.1-5.8-6.7-9.5-12.5-8.4
			c-5.8,1.2-9.5,6.8-8.4,12.5l10.7,53.3c0.7,3.8,3.5,6.8,7.1,8l96,32c1.1,0.4,2.2,0.6,3.4,0.6c1.3,0,2.5-0.2,3.8-0.7l85.3-32
			c3.5-1.3,6.1-4.4,6.8-8.2l42.7-245.3C405.7,116.1,404.8,112.9,402.8,110.5z"/>
	</g>
</g>
<path class="st3" d="M13.4,438.9h485v-369h-485C13.4,69.9,13.4,438.9,13.4,438.9z M305.7,261l-9.5-1.4c-22-3.2-38.5-12.3-38.5-34.6
	c0-23.7,18.3-35.3,42.7-35.3c19.3,0,32,7.2,41.8,19.3l-12.3,11.1c-5.3-7.4-15.5-14.6-30.9-14.6c-15.3,0-23.4,7.2-23.4,18.6
	c0,11.6,8.1,16.2,23,18.6l9.3,1.4c26.5,3.9,36.7,15.5,36.7,33.6c0,23.2-16.9,37.3-44.3,37.3c-22.1,0-36.7-9.3-47.4-23.4L266,281
	c9.3,11.6,20.4,18.3,35.5,18.3c15.8,0,25.1-7.2,25.1-19.5C326.6,270.5,321.5,263.3,305.7,261z M204.1,151.1
	c0-6.3,3.5-10.4,11.4-10.4s11.4,4.2,11.4,10.4v3c0,6.3-3.5,10.4-11.4,10.4s-11.4-4.2-11.4-10.4V151.1z M186.7,342.5h19.5V192.6h18.6
	v138.3c0,16.5-8.1,27.8-26,27.8h-12.1V342.5z M140.8,298.6c0-7.9,4.4-13.4,14.1-13.4c9.7,0,14.1,5.6,14.1,13.4v3
	c0,7.9-4.4,13.4-14.1,13.4c-9.7,0-14.1-5.6-14.1-13.4V298.6z"/>
<g>
	<path class="st2" d="M395.6,1.7H116.4C53.1,1.7,1.7,53.1,1.7,116.4v279.2c0,63.2,51.4,114.7,114.7,114.7h279.2
		c63.2,0,114.7-51.4,114.7-114.7V116.4C510.3,53.1,458.9,1.7,395.6,1.7z M491.5,395.6c0,52.8-43,95.8-95.8,95.8H116.4
		c-52.8,0-95.8-43-95.8-95.8V116.4c0-52.8,43-95.8,95.8-95.8h279.2c52.8,0,95.8,43,95.8,95.8V395.6z"/>
	<path class="st2" d="M188.6,114.7L111,378.4h29.4l24.9-85.1h78.4l26,85.1h30.5l-80.2-263.7H188.6z M172.4,265.4l31.6-107l32.8,107
		H172.4z"/>
	<path class="st2" d="M348.9,111c-4.1,0-7.8,1.6-10.9,4.7c-3.1,3.1-4.7,6.7-4.7,10.7s1.6,7.6,4.7,10.7c3.1,3.1,6.8,4.7,10.9,4.7
		s7.7-1.5,10.7-4.5c3-3,4.5-6.7,4.5-10.9s-1.5-7.9-4.5-10.9C356.6,112.5,353,111,348.9,111z"/>
	<rect x="334.7" y="189.7" class="st2" width="27.1" height="188.7"/>
</g>
</svg>
