<?xml version="1.0" encoding="utf-8"?>
<!-- Generator: Adobe Illustrator 25.2.1, SVG Export Plug-In . SVG Version: 6.00 Build 0)  -->
<svg version="1.1" id="Layer_1" xmlns="http://www.w3.org/2000/svg" xmlns:xlink="http://www.w3.org/1999/xlink" x="0px" y="0px"
	 viewBox="0 0 512 512" style="enable-background:new 0 0 512 512;" xml:space="preserve">
<style type="text/css">
	.st0{display:none;}
	.st1{display:inline;}
	.st2{fill:#CCFF00;}
	.st3{display:inline;fill:#CCFF00;}
</style>
<g class="st0">
	<g class="st1">
		<path class="st2" d="M487.9,3.5C485.9,1.3,483,0,480,0H32c-3,0-5.9,1.3-7.9,3.5s-3,5.2-2.7,8.2L64,438.4c0.4,4.2,3.2,7.7,7.2,9
			l192,64c1.1,0.4,2.2,0.6,3.4,0.6c1.3,0,2.5-0.2,3.8-0.7l170.7-64c3.8-1.4,6.5-4.9,6.9-8.9l42.7-426.7
			C490.9,8.7,489.9,5.7,487.9,3.5z M427.3,429.7L266.4,490L84.6,429.4L43.8,21.3h424.4L427.3,429.7z"/>
	</g>
</g>
<g class="st0">
	<g class="st1">
		<path class="st2" d="M402.8,110.5c-2-2.4-5-3.8-8.2-3.8h-256c-5.9,0-10.7,4.8-10.7,10.7s4.8,10.7,10.7,10.7H382l-14.8,85.3H149.3
			c-5.9,0-10.7,4.8-10.7,10.7s4.8,10.7,10.7,10.7h214.1L342.5,355l-76.1,28.5l-86.5-28.9l-9.5-47.3c-1.1-5.8-6.7-9.5-12.5-8.4
			c-5.8,1.2-9.5,6.8-8.4,12.5l10.7,53.3c0.7,3.8,3.5,6.8,7.1,8l96,32c1.1,0.4,2.2,0.6,3.4,0.6c1.3,0,2.5-0.2,3.8-0.7l85.3-32
			c3.5-1.3,6.1-4.4,6.8-8.2l42.7-245.3C405.7,116.1,404.8,112.9,402.8,110.5z"/>
	</g>
</g>
<g class="st0">
	<path class="st3" d="M395.6,1.7H116.4C53.1,1.7,1.7,53.1,1.7,116.4v279.2c0,63.2,51.4,114.7,114.7,114.7h279.2
		c63.2,0,114.7-51.4,114.7-114.7V116.4C510.3,53.1,458.9,1.7,395.6,1.7z M491.5,395.6c0,52.8-43,95.8-95.8,95.8H116.4
		c-52.8,0-95.8-43-95.8-95.8V116.4c0-52.8,43-95.8,95.8-95.8h279.2c52.8,0,95.8,43,95.8,95.8V395.6z"/>
	<path class="st3" d="M189.3,114.7H98.5v263.7h27.1v-86.6H192c12.8,0,23.9-2.3,33.2-7c9.3-4.6,16.2-10,20.7-16.2
		c4.5-6.2,8.1-14.1,10.7-23.7c2.6-9.7,4.2-17.7,4.7-24.1c0.5-6.4,0.8-14,0.8-22.8c0-24.9-6-45-17.9-60.3
		C232.2,122.4,213.9,114.7,189.3,114.7z M234.7,214.6c-0.1,3.8-1,9.4-2.6,17c-1.6,7.5-3.9,13.3-6.8,17.3c-2.9,4-7.5,7.8-13.8,11.3
		c-6.3,3.5-13.9,5.3-23,5.3h-62.9V141.1h61.4c31.9,0,47.8,19.1,47.8,57.3C234.9,205.4,234.8,210.8,234.7,214.6z"/>
	<path class="st3" d="M389.9,279c-9.9-4-19.9-7.7-30-10.9c-10-3.3-19.1-7.3-27.1-12.1c-8-4.8-12.1-11.3-12.1-19.6
		c0-7.5,3.2-13.8,9.6-18.6c6.4-4.9,16.1-7.3,29.2-7.3c13.1,0,23.6,3.1,31.6,9.4l8.7-23.7l-4.5-2.6c-3-1.8-8-3.6-15.1-5.5
		c-7-1.9-14.6-2.8-22.6-2.8c-22.9,0-39.4,5.5-49.5,16.4s-15.3,22.7-15.3,35.4c0,12.7,4.6,23.4,13.9,32.2
		c7.5,7.5,16.3,13.1,26.2,16.6c9.9,3.5,19.8,6.8,29.6,10c9.8,3.1,18.1,7.4,24.9,12.8c6.8,5.4,10.2,12.7,10.2,21.9
		c0,9.2-4,16.2-11.9,21.1c-7.9,4.9-17.3,7.3-28.1,7.3s-20.3-2.6-28.6-7.7c-8.3-5.1-12.9-12.4-13.9-21.7l-26.4,1.1
		c0.5,15.1,6.9,27.8,19.2,38.1c12.3,10.3,29.3,15.4,51,15.4c21.7,0,38.2-5.2,49.5-15.6c11.3-10.4,17-22.7,17-36.7
		c0-14.1-3.5-25.4-10.4-33.9C408.3,289.3,399.8,283,389.9,279z"/>
</g>
<path class="st2" d="M374.9,176.6c43.9-21.8,61.7-75.1,39.9-118.9c-15-30.1-45.8-49.2-79.4-49.2H176.6c-49,0-88.7,39.7-88.7,88.7
	c0,33.7,19,64.4,49.2,79.4c-43.8,21.8-61.7,75-39.9,118.9c8.6,17.3,22.6,31.3,39.9,39.9c-43.8,21.9-61.7,75.1-39.8,119
	s75.1,61.7,119,39.8c30.1-15,49.1-45.8,49.1-79.4V310.3c30,38.7,85.7,45.7,124.4,15.7c38.7-30,45.7-85.7,15.7-124.4
	C397.3,191.1,386.9,182.6,374.9,176.6z M405.4,97.2c0,38.6-31.3,70-70,70l0,0l-0.1,0l-70,0V27.2h70C374,27.2,405.4,58.6,405.4,97.2z
	 M281,185.9c-5.9,4.6-11.1,9.8-15.7,15.7v-15.7L281,185.9z M106.6,97.2c0-38.7,31.4-70,70-70h70v140.1h-70l0,0
	C137.9,167.2,106.6,135.9,106.6,97.2z M176.6,484.8c-38.7,0-70.1-31.3-70.1-70s31.3-70.1,70-70.1c0,0,0.1,0,0.1,0l70,0v70
	C246.6,453.4,215.3,484.7,176.6,484.8z M246.7,326l-70,0c-38.7,0-70-31.4-70-70.1c0-38.7,31.3-70,70-70l0,0l70,0V326z M335.4,326
	c-38.7,0-70-31.4-70-70.1c0-38.6,31.3-70,69.9-70h0.1l0,0c38.7,0,70,31.4,70,70.1C405.3,294.7,374,326,335.4,326z"/>
</svg>
